<?xml version="1.0" standalone="no"?><svg xmlns="http://www.w3.org/2000/svg" viewBox="0 0 1440 320"><path fill="#0099ff" fill-opacity="1" d="M0,0L24,5.3C48,11,96,21,144,42.7C192,64,240,96,288,106.7C336,117,384,107,432,90.7C480,75,528,53,576,74.7C624,96,672,160,720,170.7C768,181,816,139,864,117.3C912,96,960,96,1008,101.3C1056,107,1104,117,1152,112C1200,107,1248,85,1296,96C1344,107,1392,149,1416,170.7L1440,192L1440,320L1416,320C1392,320,1344,320,1296,320C1248,320,1200,320,1152,320C1104,320,1056,320,1008,320C960,320,912,320,864,320C816,320,768,320,720,320C672,320,624,320,576,320C528,320,480,320,432,320C384,320,336,320,288,320C240,320,192,320,144,320C96,320,48,320,24,320L0,320Z"></path></svg>